<svg xmlns="http://www.w3.org/2000/svg" version="1.1" xmlns:xlink="http://www.w3.org/1999/xlink" xmlns:svgjs="http://svgjs.dev/svgjs" width="1500" height="1500" viewBox="0 0 1500 1500"><g transform="matrix(1,0,0,1,-0.323615160350073,-0.3236151603499593)"><svg viewBox="0 0 343 343" data-background-color="#ffffff" preserveAspectRatio="xMidYMid meet" height="1500" width="1500" xmlns="http://www.w3.org/2000/svg" xmlns:xlink="http://www.w3.org/1999/xlink"><g id="tight-bounds" transform="matrix(1,0,0,1,0.0740000000000407,0.07400000000001228)"><svg viewBox="0 0 342.85155851775386 342.85155851775386" height="342.85155851775386" width="342.85155851775386"><g><svg></svg></g><g><svg viewBox="0 0 342.85155851775386 342.85155851775386" height="342.85155851775386" width="342.85155851775386"><g><path d="M0 171.426c0-94.676 76.75-171.426 171.426-171.426 94.676 0 171.426 76.75 171.426 171.426 0 94.676-76.75 171.426-171.426 171.426-94.676 0-171.426-76.75-171.426-171.426zM171.426 340.04c93.123 0 168.614-75.491 168.614-168.614 0-93.123-75.491-168.614-168.614-168.614-93.123 0-168.614 75.491-168.614 168.614 0 93.123 75.491 168.614 168.614 168.614z" data-fill-palette-color="tertiary" fill="#3d3bb3" stroke="transparent"></path><ellipse rx="164.56874808852186" ry="164.56874808852186" cx="171.42577925887693" cy="171.42577925887693" fill="#3d3bb3" stroke="transparent" stroke-width="0" fill-opacity="1" data-fill-palette-color="tertiary"></ellipse></g><g transform="matrix(1,0,0,1,64.84655864529837,102.81163568012448)"><svg viewBox="0 0 213.1584412271571 137.2282871575049" height="137.2282871575049" width="213.1584412271571"><g><svg viewBox="0 0 213.1584412271571 137.2282871575049" height="137.2282871575049" width="213.1584412271571"><g><svg viewBox="0 0 213.1584412271571 137.2282871575049" height="137.2282871575049" width="213.1584412271571"><g transform="matrix(1,0,0,1,0,82.70770403111604)"><svg viewBox="0 0 213.1584412271571 54.52058312638884" height="54.52058312638884" width="213.1584412271571"><g id="textblocktransform"><svg viewBox="0 0 213.1584412271571 54.52058312638884" height="54.52058312638884" width="213.1584412271571" id="textblock"><g><svg viewBox="0 0 213.1584412271571 31.177494325753827" height="31.177494325753827" width="213.1584412271571"><g transform="matrix(1,0,0,1,0,0)"><svg width="213.1584412271571" viewBox="3.15 -35.8 316.52000000000004 46.3" height="31.177494325753827" data-palette-color="#ffffff"><path d="M24.15-9.25Q24.15-4.2 21.08-1.83 18 0.55 13.7 0.55L13.7 0.55Q11 0.55 8.6-0.43 6.2-1.4 4.67-3.6 3.15-5.8 3.15-9.25L3.15-9.25 3.15-25.35Q3.15-30.5 5.98-33.15 8.8-35.8 13.75-35.8L13.75-35.8Q18.7-35.8 21.43-33 24.15-30.2 24.15-25.3L24.15-25.3 24.15-9.25ZM21.4-25.8Q21.4-29.45 19.28-31.3 17.15-33.15 13.65-33.15L13.65-33.15Q10.15-33.15 8.05-31.3 5.95-29.45 5.95-25.8L5.95-25.8 5.95-9.3Q5.95-5.75 8.13-3.93 10.3-2.1 13.65-2.1L13.65-2.1Q17.05-2.1 19.23-3.88 21.4-5.65 21.4-9.35L21.4-9.35 21.4-25.8ZM46.35 0L46.35-17.15Q46.35-20.2 44.57-21.58 42.8-22.95 40-22.95L40-22.95Q38.3-22.95 36.55-22.48 34.8-22 33.45-21.25L33.45-21.25 33.45 0 30.65 0 30.65-25.05 33.45-25.05 33.25-23.35Q34.45-24.4 36.3-24.93 38.15-25.45 40.15-25.45L40.15-25.45Q42.9-25.45 44.85-24.55L44.85-24.55Q46.85-23.65 47.97-21.85 49.1-20.05 49.1-17.3L49.1-17.3 49.1 0 46.35 0ZM56.35 0L56.35-35 59.15-35 59.15 0 56.35 0ZM68.74-32.15Q68.09-32.15 67.57-32.68 67.04-33.2 67.04-33.85L67.04-33.85Q67.04-34.5 67.54-35 68.04-35.5 68.74-35.5L68.74-35.5Q69.44-35.5 69.92-35.02 70.39-34.55 70.39-33.85L70.39-33.85Q70.39-33.15 69.89-32.65 69.39-32.15 68.74-32.15L68.74-32.15ZM67.29 0L67.29-25.05 70.09-25.05 70.09 0 67.29 0ZM93.29 0L93.29-17.15Q93.29-20.2 91.52-21.58 89.74-22.95 86.94-22.95L86.94-22.95Q85.24-22.95 83.49-22.48 81.74-22 80.39-21.25L80.39-21.25 80.39 0 77.59 0 77.59-25.05 80.39-25.05 80.19-23.35Q81.39-24.4 83.24-24.93 85.09-25.45 87.09-25.45L87.09-25.45Q89.84-25.45 91.79-24.55L91.79-24.55Q93.79-23.65 94.92-21.85 96.04-20.05 96.04-17.3L96.04-17.3 96.04 0 93.29 0ZM117.89-1.75Q116.09-0.6 113.79 0 111.49 0.6 109.19 0.6L109.19 0.6Q105.49 0.6 103.31-1.23 101.14-3.05 101.14-6.7L101.14-6.7 101.14-16.95Q101.14-21 103.66-23.25 106.19-25.5 110.34-25.5L110.34-25.5Q114.49-25.5 116.81-23.28 119.14-21.05 119.14-17.1L119.14-17.1 119.14-10.6 103.94-9.75 103.94-6.7Q103.94-4.3 105.49-3.1 107.04-1.9 109.54-1.9L109.54-1.9Q113.04-1.9 116.79-3.9L116.79-3.9 117.89-1.75ZM116.34-17.45Q116.34-20.55 114.39-21.83 112.44-23.1 110.29-23.1L110.29-23.1Q107.54-23.1 105.74-21.6 103.94-20.1 103.94-16.9L103.94-16.9 103.94-12.5 116.34-13.1 116.34-17.45ZM162.88 0L162.88-26.75 153.78 0 150.73 0 141.68-26.75 141.68 0 138.88 0 138.88-35 141.68-35 152.23-4.3 162.88-35 165.68-35 165.68 0 162.88 0ZM188.18-1.75Q186.38-0.6 184.08 0 181.78 0.6 179.48 0.6L179.48 0.6Q175.78 0.6 173.61-1.23 171.43-3.05 171.43-6.7L171.43-6.7 171.43-16.95Q171.43-21 173.96-23.25 176.48-25.5 180.63-25.5L180.63-25.5Q184.78-25.5 187.11-23.28 189.43-21.05 189.43-17.1L189.43-17.1 189.43-10.6 174.23-9.75 174.23-6.7Q174.23-4.3 175.78-3.1 177.33-1.9 179.83-1.9L179.83-1.9Q183.33-1.9 187.08-3.9L187.08-3.9 188.18-1.75ZM186.63-17.45Q186.63-20.55 184.68-21.83 182.73-23.1 180.58-23.1L180.58-23.1Q177.83-23.1 176.03-21.6 174.23-20.1 174.23-16.9L174.23-16.9 174.23-12.5 186.63-13.1 186.63-17.45ZM195.83-6.35Q196.13-4.1 198.08-2.98 200.03-1.85 202.43-1.85L202.43-1.85Q204.68-1.85 206.53-2.88 208.38-3.9 208.38-6.2L208.38-6.2Q208.38-7.7 207.5-8.68 206.63-9.65 205.33-10.25 204.03-10.85 201.83-11.55L201.83-11.55Q199.38-12.35 197.83-13.05 196.28-13.75 195.13-15.03 193.98-16.3 193.78-18.25L193.78-18.25 193.73-18.85Q193.73-20.5 194.65-22.08 195.58-23.65 197.5-24.65 199.43-25.65 202.33-25.65L202.33-25.65Q203.93-25.65 205.15-25.33 206.38-25 207.08-24.65 207.78-24.3 207.93-24.2L207.93-24.2 206.98-21.9Q206.83-22 206.25-22.3 205.68-22.6 204.63-22.9 203.58-23.2 202.33-23.2L202.33-23.2Q199.93-23.2 198.23-22.08 196.53-20.95 196.53-18.95L196.53-18.95Q196.53-17.05 198.08-16.05 199.63-15.05 202.83-14.05L202.83-14.05Q205.53-13.15 207.18-12.35 208.83-11.55 210-10.08 211.18-8.6 211.18-6.25L211.18-6.25Q211.18-3.25 208.95-1.25 206.73 0.75 202.43 0.75L202.43 0.75Q199.58 0.75 197.5-0.23 195.43-1.2 194.35-2.8 193.28-4.4 193.18-6.35L193.18-6.35 195.83-6.35ZM217.38-6.35Q217.68-4.1 219.63-2.98 221.58-1.85 223.98-1.85L223.98-1.85Q226.23-1.85 228.08-2.88 229.93-3.9 229.93-6.2L229.93-6.2Q229.93-7.7 229.05-8.68 228.18-9.65 226.88-10.25 225.58-10.85 223.38-11.55L223.38-11.55Q220.93-12.35 219.38-13.05 217.83-13.75 216.68-15.03 215.53-16.3 215.33-18.25L215.33-18.25 215.28-18.85Q215.28-20.5 216.2-22.08 217.13-23.65 219.05-24.65 220.98-25.65 223.88-25.65L223.88-25.65Q225.48-25.65 226.7-25.33 227.93-25 228.63-24.65 229.33-24.3 229.48-24.2L229.48-24.2 228.53-21.9Q228.38-22 227.8-22.3 227.23-22.6 226.18-22.9 225.13-23.2 223.88-23.2L223.88-23.2Q221.48-23.2 219.78-22.08 218.08-20.95 218.08-18.95L218.08-18.95Q218.08-17.05 219.63-16.05 221.18-15.05 224.38-14.05L224.38-14.05Q227.08-13.15 228.73-12.35 230.38-11.55 231.55-10.08 232.73-8.6 232.73-6.25L232.73-6.25Q232.73-3.25 230.5-1.25 228.28 0.75 223.98 0.75L223.98 0.75Q221.13 0.75 219.05-0.23 216.98-1.2 215.9-2.8 214.83-4.4 214.73-6.35L214.73-6.35 217.38-6.35ZM255.57 0Q250.17 0.55 247.77 0.55L247.77 0.55Q242.52 0.55 239.42-1.4 236.32-3.35 236.32-8.45L236.32-8.45 236.32-12.6Q236.32-17.55 239.77-19.25L239.77-19.25Q241.42-20.1 243.97-20.1L243.97-20.1Q246.32-20.1 248.72-19.33 251.12-18.55 252.77-17.3L252.77-17.3Q252.77-20.05 251.17-21.68 249.57-23.3 245.02-23.3L245.02-23.3 245.17-25.45Q249.97-25.45 252.25-23.93 254.52-22.4 255.05-20.3 255.57-18.2 255.57-14.9L255.57-14.9 255.57 0ZM252.77-15.15Q250.72-16.1 248.4-16.8 246.07-17.5 244.12-17.5L244.12-17.5Q239.07-17.5 239.07-12.45L239.07-12.45 239.07-8.1Q239.07-4.85 241.32-3.38 243.57-1.9 247.72-1.9L247.72-1.9Q249.87-1.9 252.77-2.3L252.77-2.3 252.77-15.15ZM271.07 8.35Q274.37 7.1 274.37 3.15L274.37 3.15 274.37-3.05Q272.27 0.6 267.62 0.6L267.62 0.6Q263.22 0.6 260.77-1.8 258.32-4.2 258.32-8.8L258.32-8.8 258.32-16.25Q258.32-20.65 260.9-23.08 263.47-25.5 267.82-25.5L267.82-25.5Q272.47-25.5 274.57-22.15L274.57-22.15 274.37-25.05 277.17-25.05 277.17 3.2Q277.17 6.2 275.92 7.9 274.67 9.6 271.82 10.5L271.82 10.5 271.07 8.35ZM274.37-16.8Q274.37-19.9 272.37-21.43 270.37-22.95 267.62-22.95L267.62-22.95Q264.97-22.95 263.05-21.33 261.12-19.7 261.12-16L261.12-16 261.12-8.35Q261.12-5.2 262.9-3.6 264.67-2 267.62-2L267.62-2Q270.42-2 272.4-3.73 274.37-5.45 274.37-8.65L274.37-8.65 274.37-16.8ZM296.67-1.75Q294.87-0.6 292.57 0 290.27 0.6 287.97 0.6L287.97 0.6Q284.27 0.6 282.09-1.23 279.92-3.05 279.92-6.7L279.92-6.7 279.92-16.95Q279.92-21 282.44-23.25 284.97-25.5 289.12-25.5L289.12-25.5Q293.27-25.5 295.59-23.28 297.92-21.05 297.92-17.1L297.92-17.1 297.92-10.6 282.72-9.75 282.72-6.7Q282.72-4.3 284.27-3.1 285.82-1.9 288.32-1.9L288.32-1.9Q291.82-1.9 295.57-3.9L295.57-3.9 296.67-1.75ZM295.12-17.45Q295.12-20.55 293.17-21.83 291.22-23.1 289.07-23.1L289.07-23.1Q286.32-23.1 284.52-21.6 282.72-20.1 282.72-16.9L282.72-16.9 282.72-12.5 295.12-13.1 295.12-17.45ZM304.31-6.35Q304.62-4.1 306.56-2.98 308.51-1.85 310.92-1.85L310.92-1.85Q313.17-1.85 315.01-2.88 316.87-3.9 316.87-6.2L316.87-6.2Q316.87-7.7 315.99-8.68 315.12-9.65 313.81-10.25 312.51-10.85 310.31-11.55L310.31-11.55Q307.87-12.35 306.31-13.05 304.76-13.75 303.62-15.03 302.47-16.3 302.26-18.25L302.26-18.25 302.22-18.85Q302.22-20.5 303.14-22.08 304.06-23.65 305.99-24.65 307.92-25.65 310.81-25.65L310.81-25.65Q312.42-25.65 313.64-25.33 314.87-25 315.56-24.65 316.26-24.3 316.42-24.2L316.42-24.2 315.47-21.9Q315.31-22 314.74-22.3 314.17-22.6 313.12-22.9 312.06-23.2 310.81-23.2L310.81-23.2Q308.42-23.2 306.72-22.08 305.01-20.95 305.01-18.95L305.01-18.95Q305.01-17.05 306.56-16.05 308.12-15.05 311.31-14.05L311.31-14.05Q314.01-13.15 315.67-12.35 317.31-11.55 318.49-10.08 319.67-8.6 319.67-6.25L319.67-6.25Q319.67-3.25 317.44-1.25 315.22 0.75 310.92 0.75L310.92 0.75Q308.06 0.75 305.99-0.23 303.92-1.2 302.84-2.8 301.76-4.4 301.67-6.35L301.67-6.35 304.31-6.35Z" opacity="1" transform="matrix(1,0,0,1,0,0)" fill="#ffffff" class="wordmark-text-0" data-fill-palette-color="quaternary" id="text-0"></path></svg></g></svg></g><g transform="matrix(1,0,0,1,0,38.53775247620049)"><svg viewBox="0 0 213.1584412271571 15.982830650188358" height="15.982830650188358" width="213.1584412271571"><g transform="matrix(1,0,0,1,0,0)"><svg width="213.1584412271571" viewBox="2.25 -37.9 657.42 49.3" height="15.982830650188358" data-palette-color="#ffffff"><path d="M22.55-33.45L21.85-29.4Q20.65-29.7 19.35-29.95L19.35-29.95Q18.2-30.2 16.73-30.38 15.25-30.55 13.65-30.55L13.65-30.55Q9.95-30.55 8.35-29.43 6.75-28.3 6.75-25.95L6.75-25.95Q6.8-24.1 8.1-22.83 9.4-21.55 11.35-20.48 13.3-19.4 15.63-18.38 17.95-17.35 19.9-16.03 21.85-14.7 23.18-12.93 24.5-11.15 24.5-8.6L24.5-8.6Q24.5-5.65 23.23-3.85 21.95-2.05 20-1.05 18.05-0.05 15.73 0.3 13.4 0.65 11.3 0.65L11.3 0.65Q9.3 0.65 7.65 0.4 6 0.15 4.8-0.15L4.8-0.15Q3.4-0.5 2.25-0.95L2.25-0.95 3.25-5Q4.4-4.5 5.7-4.15L5.7-4.15Q6.85-3.85 8.28-3.6 9.7-3.35 11.3-3.35L11.3-3.35Q13.25-3.35 14.88-3.6 16.5-3.85 17.7-4.4 18.9-4.95 19.58-5.85 20.25-6.75 20.25-8.05L20.25-8.05Q20.2-10 18.98-11.23 17.75-12.45 15.73-13.58 13.7-14.7 11.38-15.75 9.05-16.8 7.1-18.15 5.15-19.5 3.83-21.35 2.5-23.2 2.5-25.95L2.5-25.95Q2.5-27.55 3.05-29.1 3.6-30.65 4.93-31.85 6.25-33.05 8.38-33.8 10.5-34.55 13.65-34.55L13.65-34.55Q15.45-34.55 17.07-34.38 18.7-34.2 19.9-34L19.9-34Q21.3-33.75 22.55-33.45L22.55-33.45ZM29.9 0L29.9-25.2 33.9-25.65 33.9 0 29.9 0ZM29.25-32.35L29.25-32.35Q29.25-33.5 30.02-34.27 30.8-35.05 31.95-35.05L31.95-35.05Q33.15-35.05 33.97-34.27 34.8-33.5 34.8-32.35L34.8-32.35Q34.8-31.2 33.97-30.43 33.15-29.65 31.95-29.65L31.95-29.65Q30.8-29.65 30.02-30.43 29.25-31.2 29.25-32.35ZM41.15 0L41.15-20.6Q41.15-22.3 40.85-24.7L40.85-24.7 44.6-25.2 45.15-22.05Q46.5-23.05 47.8-23.8 49.1-24.55 50.6-25.1 52.1-25.65 53.65-25.65L53.65-25.65Q56.15-25.65 57.6-24.78 59.05-23.9 59.75-21.8L59.75-21.8Q61.8-23.25 64.02-24.45 66.25-25.65 68.65-25.65L68.65-25.65Q70.5-25.65 71.8-25.18 73.09-24.7 73.9-23.6 74.7-22.5 75.05-20.7 75.4-18.9 75.4-16.2L75.4-16.2 75.4 0 71.4 0 71.4-15.75Q71.4-17.25 71.34-18.43 71.3-19.6 71-20.43 70.7-21.25 70.02-21.7 69.34-22.15 68.09-22.15L68.09-22.15Q66.95-22.15 65.92-21.83 64.9-21.5 63.8-20.9 62.7-20.3 60.4-18.45L60.4-18.45 60.4 0 56.4 0 56.4-15.75Q56.4-17.25 56.35-18.43 56.3-19.6 56-20.43 55.7-21.25 55.02-21.7 54.35-22.15 53.1-22.15L53.1-22.15Q51.8-22.15 50.4-21.6 49-21.05 47.75-20.3 46.5-19.55 45.15-18.55L45.15-18.55 45.15 0 41.15 0ZM82.49 11.4L82.49-19.35Q82.49-21.15 82.24-24.7L82.24-24.7 85.94-25.2 86.39-22.5Q87.39-23.35 88.47-24.03 89.54-24.7 90.82-25.18 92.09-25.65 93.54-25.65L93.54-25.65Q95.59-25.65 97.42-24.95 99.24-24.25 100.62-22.7 101.99-21.15 102.79-18.68 103.59-16.2 103.59-12.6L103.59-12.6Q103.59-8.95 102.52-6.43 101.44-3.9 99.72-2.33 97.99-0.75 95.82-0.05 93.64 0.65 91.39 0.65L91.39 0.65Q88.99 0.6 86.49 0.05L86.49 0.05 86.49 10.9 82.49 11.4ZM91.39-2.85L91.39-2.85Q93.49-2.85 94.99-3.6 96.49-4.35 97.47-5.68 98.44-7 98.89-8.72 99.34-10.45 99.34-12.4L99.34-12.4Q99.34-14.15 99.02-15.9 98.69-17.65 97.97-19.03 97.24-20.4 96.04-21.28 94.84-22.15 93.09-22.15L93.09-22.15Q91.79-22.15 90.64-21.68 89.49-21.2 88.47-20.53 87.44-19.85 86.49-19L86.49-19 86.49-3.65Q87.04-3.45 87.72-3.28 88.39-3.1 89.32-2.98 90.24-2.85 91.39-2.85ZM109.44 0L109.44-37.45 113.44-37.9 113.44 0 109.44 0ZM138.49-3.95L139.24-0.6Q138.09-0.25 136.86 0 135.64 0.25 134.16 0.45 132.69 0.65 131.09 0.65L131.09 0.65Q128.59 0.65 126.44-0.05 124.29-0.75 122.69-2.3 121.09-3.85 120.16-6.33 119.24-8.8 119.24-12.4L119.24-12.4Q119.24-15.65 120.14-18.13 121.04-20.6 122.61-22.28 124.19-23.95 126.31-24.8 128.44-25.65 130.94-25.65L130.94-25.65Q133.39-25.65 135.19-24.7 136.99-23.75 138.16-22.13 139.34-20.5 139.91-18.32 140.49-16.15 140.49-13.75L140.49-13.75 139.74-11.55 123.59-11.55Q123.59-10 123.99-8.45 124.39-6.9 125.36-5.65 126.34-4.4 127.91-3.63 129.49-2.85 131.84-2.85L131.84-2.85Q133.34-2.85 134.59-3.03 135.84-3.2 136.76-3.43 137.69-3.65 138.49-3.95L138.49-3.95ZM123.74-14.75L136.34-14.75Q136.34-15.1 136.19-16.3 136.04-17.5 135.49-18.8 134.94-20.1 133.79-21.13 132.64-22.15 130.74-22.15L130.74-22.15Q128.64-22.15 127.29-21.28 125.94-20.4 125.14-19.2 124.34-18 124.04-16.75 123.74-15.5 123.74-14.75L123.74-14.75ZM171.68-24.6L170.98-21.05Q168.88-21.7 167.26-21.93 165.63-22.15 164.28-22.15L164.28-22.15Q162.53-22.15 161.36-21.3 160.18-20.45 160.18-19.1L160.18-19.1Q160.23-17.9 161.23-17.05 162.23-16.2 163.56-15.53 164.88-14.85 166.51-14.05 168.13-13.25 169.56-12.25 170.98-11.25 171.88-9.85 172.78-8.45 172.83-6.5L172.83-6.5Q172.78-4.4 171.91-3.03 171.03-1.65 169.66-0.83 168.28 0 166.68 0.33 165.08 0.65 163.68 0.65L163.68 0.65Q161.88 0.65 159.96 0.45 158.03 0.25 155.83-0.4L155.83-0.4 156.58-4Q158.83-3.4 160.68-3.13 162.53-2.85 163.73-2.85L163.73-2.85Q164.63-2.85 165.51-3.05 166.38-3.25 167.08-3.63 167.78-4 168.21-4.6 168.63-5.2 168.63-5.95L168.63-5.95Q168.58-7.35 167.68-8.33 166.78-9.3 165.36-10.08 163.93-10.85 162.31-11.63 160.68-12.4 159.26-13.43 157.83-14.45 156.88-15.88 155.93-17.3 155.93-19.4L155.93-19.4Q155.93-20.9 156.71-22.08 157.48-23.25 158.71-24.03 159.93-24.8 161.41-25.23 162.88-25.65 164.28-25.65L164.28-25.65Q165.73-25.65 167.53-25.43 169.33-25.2 171.68-24.6L171.68-24.6ZM181.08-12.45L181.08-12.45Q181.08-7.6 183.25-5.23 185.43-2.85 189.13-2.85L189.13-2.85Q192.78-2.85 194.83-5.2 196.88-7.55 196.88-12.25L196.88-12.25Q196.88-17.25 194.7-19.7 192.53-22.15 188.78-22.15L188.78-22.15Q185.03-22.15 183.06-19.73 181.08-17.3 181.08-12.45ZM176.83-12.5L176.83-12.5Q176.83-16.3 178.03-18.82 179.23-21.35 181.08-22.88 182.93-24.4 185.06-25.03 187.18-25.65 189.08-25.65L189.08-25.65Q190.88-25.65 193-25.08 195.13-24.5 196.93-23.03 198.73-21.55 199.93-19.07 201.13-16.6 201.13-12.8L201.13-12.8Q201.13-8.85 199.91-6.25 198.68-3.65 196.83-2.13 194.98-0.6 192.83 0.03 190.68 0.65 188.83 0.65L188.83 0.65Q186.93 0.65 184.83 0.05 182.73-0.55 180.95-2.02 179.18-3.5 178-6.05 176.83-8.6 176.83-12.5ZM206.93 0L206.93-37.45 210.93-37.9 210.93 0 206.93 0ZM233.47 0.4L233.17-2.75 233.07-2.75Q232.62-2.4 231.77-1.83 230.92-1.25 229.82-0.7 228.72-0.15 227.4 0.25 226.07 0.65 224.72 0.65L224.72 0.65Q222.87 0.65 221.57 0.18 220.27-0.3 219.47-1.4 218.67-2.5 218.32-4.3 217.97-6.1 217.97-8.8L217.97-8.8 217.97-25.15 221.97-25.15 221.97-9.4Q221.97-7.9 222.02-6.7 222.07-5.5 222.37-4.65 222.67-3.8 223.35-3.33 224.02-2.85 225.27-2.85L225.27-2.85Q226.57-2.85 227.97-3.4 229.37-3.95 230.52-4.65L230.52-4.65Q231.87-5.45 233.17-6.45L233.17-6.45 233.17-25.15 237.17-25.15 237.17-3.25Q237.22-1.45 237.42 0L237.42 0 233.47 0.4ZM246.27-32.15L250.27-32.65 250.27-25.15 257.52-25.15 257.52-21.9 250.27-21.9 250.27-8.55Q250.27-6.9 250.35-5.8 250.42-4.7 250.67-4.05 250.92-3.4 251.37-3.13 251.82-2.85 252.52-2.85L252.52-2.85Q254.42-2.9 256.92-4.25L256.92-4.25 258.12-1.2Q256.47-0.1 255.05 0.28 253.62 0.65 252.22 0.65L252.22 0.65Q248.92 0.65 247.6-1.23 246.27-3.1 246.27-7.45L246.27-7.45 246.27-21.9 241.67-21.9 241.67-25.15 246.27-25.15 246.27-32.15ZM262.62 0L262.62-25.2 266.62-25.65 266.62 0 262.62 0ZM261.97-32.35L261.97-32.35Q261.97-33.5 262.75-34.27 263.52-35.05 264.67-35.05L264.67-35.05Q265.87-35.05 266.69-34.27 267.52-33.5 267.52-32.35L267.52-32.35Q267.52-31.2 266.69-30.43 265.87-29.65 264.67-29.65L264.67-29.65Q263.52-29.65 262.75-30.43 261.97-31.2 261.97-32.35ZM276.67-12.45L276.67-12.45Q276.67-7.6 278.84-5.23 281.02-2.85 284.72-2.85L284.72-2.85Q288.37-2.85 290.42-5.2 292.47-7.55 292.47-12.25L292.47-12.25Q292.47-17.25 290.29-19.7 288.12-22.15 284.37-22.15L284.37-22.15Q280.62-22.15 278.64-19.73 276.67-17.3 276.67-12.45ZM272.42-12.5L272.42-12.5Q272.42-16.3 273.62-18.82 274.82-21.35 276.67-22.88 278.52-24.4 280.64-25.03 282.77-25.65 284.67-25.65L284.67-25.65Q286.47-25.65 288.59-25.08 290.72-24.5 292.52-23.03 294.32-21.55 295.52-19.07 296.72-16.6 296.72-12.8L296.72-12.8Q296.72-8.85 295.49-6.25 294.27-3.65 292.42-2.13 290.57-0.6 288.42 0.03 286.27 0.65 284.42 0.65L284.42 0.65Q282.52 0.65 280.42 0.05 278.32-0.55 276.54-2.02 274.77-3.5 273.59-6.05 272.42-8.6 272.42-12.5ZM302.56 0L302.56-20.15Q302.61-21.2 302.31-24.7L302.31-24.7 306.01-25.2 306.56-22Q308.06-23 309.54-23.75 311.01-24.5 312.56-25.08 314.11-25.65 315.56-25.65L315.56-25.65Q317.61-25.65 318.99-25.18 320.36-24.7 321.21-23.6 322.06-22.5 322.44-20.7 322.81-18.9 322.81-16.2L322.81-16.2 322.81 0 318.81 0 318.81-15.75Q318.81-17.25 318.76-18.43 318.71-19.6 318.34-20.43 317.96-21.25 317.19-21.7 316.41-22.15 315.01-22.15L315.01-22.15Q313.71-22.15 312.26-21.58 310.81-21 309.41-20.25 308.01-19.5 306.56-18.5L306.56-18.5 306.56 0 302.56 0ZM344.16-24.6L343.46-21.05Q341.36-21.7 339.74-21.93 338.11-22.15 336.76-22.15L336.76-22.15Q335.01-22.15 333.84-21.3 332.66-20.45 332.66-19.1L332.66-19.1Q332.71-17.9 333.71-17.05 334.71-16.2 336.04-15.53 337.36-14.85 338.99-14.05 340.61-13.25 342.04-12.25 343.46-11.25 344.36-9.85 345.26-8.45 345.31-6.5L345.31-6.5Q345.26-4.4 344.39-3.03 343.51-1.65 342.14-0.83 340.76 0 339.16 0.33 337.56 0.65 336.16 0.65L336.16 0.65Q334.36 0.65 332.44 0.45 330.51 0.25 328.31-0.4L328.31-0.4 329.06-4Q331.31-3.4 333.16-3.13 335.01-2.85 336.21-2.85L336.21-2.85Q337.11-2.85 337.99-3.05 338.86-3.25 339.56-3.63 340.26-4 340.69-4.6 341.11-5.2 341.11-5.95L341.11-5.95Q341.06-7.35 340.16-8.33 339.26-9.3 337.84-10.08 336.41-10.85 334.79-11.63 333.16-12.4 331.74-13.43 330.31-14.45 329.36-15.88 328.41-17.3 328.41-19.4L328.41-19.4Q328.41-20.9 329.19-22.08 329.96-23.25 331.19-24.03 332.41-24.8 333.89-25.23 335.36-25.65 336.76-25.65L336.76-25.65Q338.21-25.65 340.01-25.43 341.81-25.2 344.16-24.6L344.16-24.6ZM364.31 0L364.31-21.9 359.66-21.9 359.66-25.15 364.31-25.15Q364.31-28.65 364.78-31.08 365.26-33.5 366.31-35.02 367.36-36.55 369.01-37.23 370.66-37.9 373.01-37.9L373.01-37.9Q374.91-37.9 376.56-37.27 378.21-36.65 379.21-35.75L379.21-35.75 377.46-32.75Q376.46-33.5 375.38-33.95 374.31-34.4 373.06-34.4L373.06-34.4Q371.41-34.4 370.46-33.68 369.51-32.95 369.03-31.7 368.56-30.45 368.43-28.78 368.31-27.1 368.31-25.15L368.31-25.15 374.56-25.15 374.56-21.9 368.31-21.9 368.31 0 364.31 0ZM381.56-12.45L381.56-12.45Q381.56-7.6 383.73-5.23 385.91-2.85 389.61-2.85L389.61-2.85Q393.25-2.85 395.31-5.2 397.36-7.55 397.36-12.25L397.36-12.25Q397.36-17.25 395.18-19.7 393-22.15 389.25-22.15L389.25-22.15Q385.5-22.15 383.53-19.73 381.56-17.3 381.56-12.45ZM377.31-12.5L377.31-12.5Q377.31-16.3 378.5-18.82 379.71-21.35 381.56-22.88 383.41-24.4 385.53-25.03 387.66-25.65 389.56-25.65L389.56-25.65Q391.36-25.65 393.48-25.08 395.61-24.5 397.41-23.03 399.21-21.55 400.41-19.07 401.61-16.6 401.61-12.8L401.61-12.8Q401.61-8.85 400.38-6.25 399.16-3.65 397.31-2.13 395.46-0.6 393.31 0.03 391.16 0.65 389.31 0.65L389.31 0.65Q387.41 0.65 385.31 0.05 383.21-0.55 381.43-2.02 379.66-3.5 378.48-6.05 377.31-8.6 377.31-12.5ZM407.45 0L407.45-21.1Q407.45-22.25 407.2-24.7L407.2-24.7 410.9-25.2 411.3-21.55 411.35-21.55Q412.25-22.7 413.1-23.55 413.95-24.4 414.88-25.03 415.8-25.65 416.65-25.65L416.65-25.65Q417.8-25.7 419.85-25.4L419.85-25.4 418.95-21.55Q417.3-21.85 416.65-21.8L416.65-21.8Q415.8-21.8 414.85-21 413.9-20.2 413.2-19.3L413.2-19.3Q412.3-18.2 411.45-16.8L411.45-16.8 411.45 0 407.45 0ZM450-24.6L449.3-21.05Q447.2-21.7 445.57-21.93 443.95-22.15 442.6-22.15L442.6-22.15Q440.85-22.15 439.67-21.3 438.5-20.45 438.5-19.1L438.5-19.1Q438.55-17.9 439.55-17.05 440.55-16.2 441.87-15.53 443.2-14.85 444.82-14.05 446.45-13.25 447.87-12.25 449.3-11.25 450.2-9.85 451.1-8.45 451.15-6.5L451.15-6.5Q451.1-4.4 450.22-3.03 449.35-1.65 447.97-0.83 446.6 0 445 0.33 443.4 0.65 442 0.65L442 0.65Q440.2 0.65 438.27 0.45 436.35 0.25 434.15-0.4L434.15-0.4 434.9-4Q437.15-3.4 439-3.13 440.85-2.85 442.05-2.85L442.05-2.85Q442.95-2.85 443.82-3.05 444.7-3.25 445.4-3.63 446.1-4 446.52-4.6 446.95-5.2 446.95-5.95L446.95-5.95Q446.9-7.35 446-8.33 445.1-9.3 443.67-10.08 442.25-10.85 440.62-11.63 439-12.4 437.57-13.43 436.15-14.45 435.2-15.88 434.25-17.3 434.25-19.4L434.25-19.4Q434.25-20.9 435.02-22.08 435.8-23.25 437.02-24.03 438.25-24.8 439.72-25.23 441.2-25.65 442.6-25.65L442.6-25.65Q444.05-25.65 445.85-25.43 447.65-25.2 450-24.6L450-24.6ZM456.55 0L456.55-25.2 460.55-25.65 460.55 0 456.55 0ZM455.9-32.35L455.9-32.35Q455.9-33.5 456.67-34.27 457.45-35.05 458.6-35.05L458.6-35.05Q459.8-35.05 460.62-34.27 461.45-33.5 461.45-32.35L461.45-32.35Q461.45-31.2 460.62-30.43 459.8-29.65 458.6-29.65L458.6-29.65Q457.45-29.65 456.67-30.43 455.9-31.2 455.9-32.35ZM467.79 0L467.79-20.6Q467.79-22.3 467.49-24.7L467.49-24.7 471.24-25.2 471.79-22.05Q473.14-23.05 474.44-23.8 475.74-24.55 477.24-25.1 478.74-25.65 480.29-25.65L480.29-25.65Q482.79-25.65 484.24-24.78 485.69-23.9 486.39-21.8L486.39-21.8Q488.44-23.25 490.67-24.45 492.89-25.65 495.29-25.65L495.29-25.65Q497.14-25.65 498.44-25.18 499.74-24.7 500.54-23.6 501.34-22.5 501.69-20.7 502.04-18.9 502.04-16.2L502.04-16.2 502.04 0 498.04 0 498.04-15.75Q498.04-17.25 497.99-18.43 497.94-19.6 497.64-20.43 497.34-21.25 496.67-21.7 495.99-22.15 494.74-22.15L494.74-22.15Q493.59-22.15 492.57-21.83 491.54-21.5 490.44-20.9 489.34-20.3 487.04-18.45L487.04-18.45 487.04 0 483.04 0 483.04-15.75Q483.04-17.25 482.99-18.43 482.94-19.6 482.64-20.43 482.34-21.25 481.67-21.7 480.99-22.15 479.74-22.15L479.74-22.15Q478.44-22.15 477.04-21.6 475.64-21.05 474.39-20.3 473.14-19.55 471.79-18.55L471.79-18.55 471.79 0 467.79 0ZM509.14 11.4L509.14-19.35Q509.14-21.15 508.89-24.7L508.89-24.7 512.59-25.2 513.04-22.5Q514.04-23.35 515.12-24.03 516.19-24.7 517.47-25.18 518.74-25.65 520.19-25.65L520.19-25.65Q522.24-25.65 524.07-24.95 525.89-24.25 527.27-22.7 528.64-21.15 529.44-18.68 530.24-16.2 530.24-12.6L530.24-12.6Q530.24-8.95 529.17-6.43 528.09-3.9 526.37-2.33 524.64-0.75 522.47-0.05 520.29 0.65 518.04 0.65L518.04 0.65Q515.64 0.6 513.14 0.05L513.14 0.05 513.14 10.9 509.14 11.4ZM518.04-2.85L518.04-2.85Q520.14-2.85 521.64-3.6 523.14-4.35 524.12-5.68 525.09-7 525.54-8.72 525.99-10.45 525.99-12.4L525.99-12.4Q525.99-14.15 525.67-15.9 525.34-17.65 524.62-19.03 523.89-20.4 522.69-21.28 521.49-22.15 519.74-22.15L519.74-22.15Q518.44-22.15 517.29-21.68 516.14-21.2 515.12-20.53 514.09-19.85 513.14-19L513.14-19 513.14-3.65Q513.69-3.45 514.37-3.28 515.04-3.1 515.97-2.98 516.89-2.85 518.04-2.85ZM536.09 0L536.09-37.45 540.09-37.9 540.09 0 536.09 0ZM565.13-3.95L565.88-0.6Q564.73-0.25 563.51 0 562.28 0.25 560.81 0.45 559.33 0.65 557.73 0.65L557.73 0.65Q555.23 0.65 553.08-0.05 550.93-0.75 549.33-2.3 547.73-3.85 546.81-6.33 545.88-8.8 545.88-12.4L545.88-12.4Q545.88-15.65 546.78-18.13 547.68-20.6 549.26-22.28 550.83-23.95 552.96-24.8 555.08-25.65 557.58-25.65L557.58-25.65Q560.03-25.65 561.83-24.7 563.63-23.75 564.81-22.13 565.98-20.5 566.56-18.32 567.13-16.15 567.13-13.75L567.13-13.75 566.38-11.55 550.23-11.55Q550.23-10 550.63-8.45 551.03-6.9 552.01-5.65 552.98-4.4 554.56-3.63 556.13-2.85 558.48-2.85L558.48-2.85Q559.98-2.85 561.23-3.03 562.48-3.2 563.41-3.43 564.33-3.65 565.13-3.95L565.13-3.95ZM550.38-14.75L562.98-14.75Q562.98-15.1 562.83-16.3 562.68-17.5 562.13-18.8 561.58-20.1 560.43-21.13 559.28-22.15 557.38-22.15L557.38-22.15Q555.28-22.15 553.93-21.28 552.58-20.4 551.78-19.2 550.98-18 550.68-16.75 550.38-15.5 550.38-14.75L550.38-14.75ZM572.63 0L572.63-21.1Q572.63-22.25 572.38-24.7L572.38-24.7 576.08-25.2 576.48-21.55 576.53-21.55Q577.43-22.7 578.28-23.55 579.13-24.4 580.06-25.03 580.98-25.65 581.83-25.65L581.83-25.65Q582.98-25.7 585.03-25.4L585.03-25.4 584.13-21.55Q582.48-21.85 581.83-21.8L581.83-21.8Q580.98-21.8 580.03-21 579.08-20.2 578.38-19.3L578.38-19.3Q577.48-18.2 576.63-16.8L576.63-16.8 576.63 0 572.63 0ZM600.88 0L600.88-37.45 604.88-37.9 604.88 0 600.88 0ZM612.07 0L612.07-25.2 616.07-25.65 616.07 0 612.07 0ZM611.42-32.35L611.42-32.35Q611.42-33.5 612.2-34.27 612.97-35.05 614.12-35.05L614.12-35.05Q615.32-35.05 616.15-34.27 616.97-33.5 616.97-32.35L616.97-32.35Q616.97-31.2 616.15-30.43 615.32-29.65 614.12-29.65L614.12-29.65Q612.97-29.65 612.2-30.43 611.42-31.2 611.42-32.35ZM625.42 0L625.42-21.9 620.77-21.9 620.77-25.15 625.42-25.15Q625.42-28.65 625.9-31.08 626.37-33.5 627.42-35.02 628.47-36.55 630.12-37.23 631.77-37.9 634.12-37.9L634.12-37.9Q636.02-37.9 637.67-37.27 639.32-36.65 640.32-35.75L640.32-35.75 638.57-32.75Q637.57-33.5 636.5-33.95 635.42-34.4 634.17-34.4L634.17-34.4Q632.52-34.4 631.57-33.68 630.62-32.95 630.15-31.7 629.67-30.45 629.55-28.78 629.42-27.1 629.42-25.15L629.42-25.15 635.67-25.15 635.67-21.9 629.42-21.9 629.42 0 625.42 0ZM657.67-3.95L658.42-0.6Q657.27-0.25 656.04 0 654.82 0.25 653.34 0.45 651.87 0.65 650.27 0.65L650.27 0.65Q647.77 0.65 645.62-0.05 643.47-0.75 641.87-2.3 640.27-3.85 639.34-6.33 638.42-8.8 638.42-12.4L638.42-12.4Q638.42-15.65 639.32-18.13 640.22-20.6 641.79-22.28 643.37-23.95 645.49-24.8 647.62-25.65 650.12-25.65L650.12-25.65Q652.57-25.65 654.37-24.7 656.17-23.75 657.34-22.13 658.52-20.5 659.09-18.32 659.67-16.15 659.67-13.75L659.67-13.75 658.92-11.55 642.77-11.55Q642.77-10 643.17-8.45 643.57-6.9 644.54-5.65 645.52-4.4 647.09-3.63 648.67-2.85 651.02-2.85L651.02-2.85Q652.52-2.85 653.77-3.03 655.02-3.2 655.94-3.43 656.87-3.65 657.67-3.95L657.67-3.95ZM642.92-14.75L655.52-14.75Q655.52-15.1 655.37-16.3 655.22-17.5 654.67-18.8 654.12-20.1 652.97-21.13 651.82-22.15 649.92-22.15L649.92-22.15Q647.82-22.15 646.47-21.28 645.12-20.4 644.32-19.2 643.52-18 643.22-16.75 642.92-15.5 642.92-14.75L642.92-14.75Z" opacity="1" transform="matrix(1,0,0,1,0,0)" fill="#ffffff" class="slogan-text-1" data-fill-palette-color="quaternary" id="text-1"></path></svg></g></svg></g></svg></g></svg></g><g transform="matrix(1,0,0,1,68.86191371398166,0)"><svg viewBox="0 0 75.4346137991938 75.34744588066938" height="75.34744588066938" width="75.4346137991938"><g><svg xmlns="http://www.w3.org/2000/svg" xmlns:xlink="http://www.w3.org/1999/xlink" version="1.1" x="0" y="0" viewBox="4.9350000000000005 5.209 90.00099999999999 89.89699999999999" enable-background="new 0 0 100 100" xml:space="preserve" height="75.34744588066938" width="75.4346137991938" class="icon-icon-0" data-fill-palette-color="quaternary" id="icon-0"><path fill="#ffffff" d="M88.635 5.209H11.236c-3.48 0-6.301 2.821-6.301 6.299v42.524c0 3.479 2.821 6.3 6.301 6.3h27.916c23.897 2.047 18.611 34.774 20.097 34.774 1.486 0 29.456-34.854 29.456-34.854l6.231-7.343V11.508C94.936 8.03 92.115 5.209 88.635 5.209zM89.311 50.844c-1.649 1.943-4.944 5.827-4.944 5.827l-0.048 0.06c-7.115 8.866-14.836 18.305-20.457 24.981-0.434-3.286-1.177-6.846-2.486-10.261-3.849-10.052-11.368-15.835-21.745-16.723l-0.239-0.021H11.236c-0.372 0-0.676-0.303-0.676-0.675V11.508c0-0.372 0.303-0.674 0.676-0.674h77.399c0.372 0 0.676 0.303 0.676 0.674C89.311 11.508 89.311 47.116 89.311 50.844zM21.104 44.995h57.309v-3.596H21.104V44.995zM21.104 34.207h57.309v-3.596H21.104V34.207zM21.104 23.419h57.309v-3.596H21.104V23.419z" data-fill-palette-color="quaternary"></path></svg></g></svg></g><g></g></svg></g></svg></g></svg></g></svg></g><defs></defs></svg><rect width="342.85155851775386" height="342.85155851775386" fill="none" stroke="none" visibility="hidden"></rect></g></svg></g></svg>